# xmcd
#
# Track frame offsets: 
#        150
#        10463
#        26750
#        39718
#        51318
#        70133
#        82349
#        93050
#        107154
#        118563
#        130985
#        147133
#        159735
#        172460
#        185859
#        200924
#        247519
#        274456
#        296950
#        312960
#        324955
#
# Disc length: 4535 seconds
#
# Revision: 4
# Processed by: cddbd v1.5.2PL0 Copyright (c) Steve Scherf et al.
# Submitted via: ExactAudioCopy v1.0b2
#
DISCID=4a11b515
DTITLE=Nina Simone - The Very Best Of (2006)
DYEAR=2006
DGENRE=Jazz
TTITLE0=Ain't Got No, I Got Life
TTITLE1=My Baby Just Cares For Me
TTITLE2=Feeling Good
TTITLE3=I Put A Spell On You
TTITLE4=I Loves You Porgy
TTITLE5=Don't Let Me Be Misunderstood
TTITLE6=The Look Of Love
TTITLE7=I Wish I Knew How It Would Feel To Be Free
TTITLE8=I Want A Little Sugar In My Bowl
TTITLE9=Do I Move You
TTITLE10=Do What You Gotta Do
TTITLE11=To Be Young, Gifted And Black
TTITLE12=Since I Fell For You
TTITLE13=Nobody's Fault But Mine
TTITLE14=I Think It's Going To Rain Today
TTITLE15=Sinnerman
TTITLE16=Times They Are A Changin'
TTITLE17=Mr. Bojangles
TTITLE18=Here Comes The Sun
TTITLE19=To Love Somebody
TTITLE20=Ain't Got No, I Got Life (Nina Simone V Groovefinder Remix)
EXTD=YEAR: 2006
EXTT0=
EXTT1=
EXTT2=
EXTT3=
EXTT4=
EXTT5=
EXTT6=
EXTT7=
EXTT8=
EXTT9=
EXTT10=
EXTT11=
EXTT12=
EXTT13=
EXTT14=
EXTT15=
EXTT16=
EXTT17=
EXTT18=
EXTT19=
EXTT20=
PLAYORDER=
